PathFileType	4	(X/Y/Z)	C:\Users\WrightLab\Desktop\Jo\P1.2Trial36.trc
DataRate	CameraRate	NumFrames	NumMarkers	Units	OrigDataRate	OrigDataStartFrame	OrigNumFrames
100.00	100.00	      15	19	mm	100.00	644	      1029
Frame#	Time	Headset_Front			Headset_Back			Headset_Left			Headset_Right			Left_Shoulder			Right_Shoulder			Sternum			C7			Left Elbow			Right Elbow			Left Wrist			Right Wrist			Left ASIS			Right ASIS			S2			Left Knee			Right Knee			Left Ankle			Right Ankle			
		X1	Y1	Z1	X2	Y2	Z2	X3	Y3	Z3	X4	Y4	Z4	X5	Y5	Z5	X6	Y6	Z6	X7	Y7	Z7	X8	Y8	Z8	X9	Y9	Z9	X10	Y10	Z10	X11	Y11	Z11	X12	Y12	Z12	X13	Y13	Z13	X14	Y14	Z14	X15	Y15	Z15	X16	Y16	Z16	X17	Y17	Z17	X18	Y18	Z18	X19	Y19	Z19	

644	6.430	-378.35522	1260.29016	-14.49062	-499.68018	1498.90588	137.73114	-547.10992	1385.42200	16.84635	-336.16629	1346.68127	101.96877	-669.14417	1225.29285	46.82468	-338.10788	1232.60913	285.94498	-458.32187	1138.86365	100.51291	-575.97241	1312.96960	267.00742	-645.63263	953.08197	-29.75758	-291.70547	988.53015	374.56595	-471.30762	864.25446	-177.12390	-196.18301	739.35577	331.34641	-623.41748	847.61334	71.14822	-381.88959	822.07318	213.23070	-646.99036	924.70667	371.42368	-724.00323	429.53503	102.43674	-351.75452	439.42944	187.72316	-966.03900	149.64539	292.36633	-325.45465	101.68609	190.11855	
645	6.440	-372.21115	1260.87122	-17.36375	-491.90683	1499.41687	134.76073	-539.74139	1386.45569	13.82578	-329.38394	1346.62781	98.15337	-663.03583	1227.04883	44.37976	-331.09564	1232.62219	278.56662	-453.00204	1139.40613	96.98155	-569.18085	1314.70679	262.54114	-640.45050	954.95502	-31.94422	-282.45883	990.17975	369.19763	-465.08298	865.60992	-178.51663	-184.01714	741.83704	322.12036	-619.31244	849.01477	69.20736	-376.44733	822.74463	209.26535	-640.78711	927.34015	370.78534	-720.71161	432.36301	96.54148	-350.60251	438.14185	187.80284	-962.74896	153.14806	291.00024	-325.28125	101.65668	188.84738	
646	6.450	-365.20630	1261.50037	-21.35454	-485.22061	1500.57690	131.85823	-533.26196	1386.73621	9.61681	-322.32034	1347.38281	95.05303	-656.66473	1228.26758	42.62664	-323.36194	1233.93323	278.63568	-447.47314	1139.97681	93.83562	-561.88605	1315.74707	261.62164	-635.78815	956.09998	-35.15929	-273.37592	991.36353	363.88226	-459.78049	866.81952	-181.61420	-173.47278	743.59521	311.89957	-614.97290	850.70709	68.61134	-373.06992	821.67267	209.32617	-634.80188	929.52551	369.53696	-716.51733	434.11526	92.68543	-348.98602	436.58038	187.72168	-956.36542	156.97977	288.52237	-325.42770	100.69366	189.26501	
647	6.460	-359.04282	1262.51868	-24.63050	-477.83206	1500.69897	128.88162	-526.73724	1387.64648	7.62014	-315.71762	1347.81201	91.80974	-650.91864	1229.54846	40.23425	-317.01523	1233.53125	271.98587	-442.10385	1140.18457	91.07410	-554.42938	1316.91577	259.09033	-631.14594	958.03827	-38.84113	-264.84396	992.04718	361.28381	-454.79712	868.90369	-184.50725	-163.66566	745.02582	303.10046	-610.81329	851.28625	67.43606	-367.55087	823.04053	205.88086	-627.97272	931.34149	368.54620	-713.51410	435.94781	88.27880	-348.46774	434.92538	187.48192	-951.34363	157.82761	285.32053	-325.37878	100.08983	189.48291	
648	6.470	-353.08490	1262.92493	-28.41686	-471.69830	1501.09045	126.28650	-520.34021	1387.93042	4.30451	-306.93564	1348.88525	88.19833	-645.11957	1230.86572	38.24298	-308.47525	1234.31665	269.91049	-436.44296	1140.35559	88.44812	-547.40747	1318.02148	256.33591	-626.77979	959.15369	-41.12051	-256.50351	992.22803	357.58029	-449.18195	870.36041	-187.04855	-153.58273	746.45374	293.86298	-606.68408	852.04022	66.21119	-362.80008	822.90692	201.88611	-622.07776	933.16913	367.71909	-710.47351	437.63446	84.44113	-347.30392	434.33740	187.46893	-946.48267	160.22685	282.36746	-324.87155	100.09113	188.44614	
649	6.480	-346.61258	1262.83569	-31.28591	-464.91946	1501.37878	122.83765	-514.08734	1388.08606	1.94102	-302.67517	1348.87439	86.03345	-639.78741	1231.53906	36.97817	-302.57840	1234.89734	267.30609	-431.18927	1140.60840	85.89011	-540.49512	1318.62427	253.81047	-622.51257	960.52643	-43.97775	-248.10014	993.88031	354.21194	-444.04456	872.31372	-189.74988	-144.32324	747.90503	284.67062	-602.25067	852.53473	65.06137	-358.36118	823.45374	198.30086	-617.09253	934.83905	366.75076	-707.24414	439.04260	80.54488	-345.48264	434.31912	186.43390	-937.42969	161.60616	277.83398	-325.19791	99.67623	188.91478	
650	6.490	-340.76999	1262.76550	-33.86039	-458.53220	1501.68750	120.09015	-508.33148	1388.58350	-1.29900	-296.33783	1347.90845	81.31860	-634.48041	1232.83411	34.14465				-426.53101	1140.27417	83.24745	-533.86902	1319.67590	251.37953	-618.37976	962.20166	-47.43424	-240.69792	993.27795	350.61343	-439.16672	874.78113	-192.74191	-135.30928	748.97852	276.44318	-597.97327	853.30109	64.43546	-353.82870	821.54962	195.14156	-612.34210	935.96558	365.21115	-703.40845	440.68127	76.02634	-343.74521	433.64008	185.78209	-913.33087	173.53482	263.75223	-324.57916	99.50639	188.52803	
651	6.500	-335.33231	1262.67725	-37.65677	-452.39243	1501.85278	116.95587	-502.60428	1389.12488	-4.25989	-288.43076	1349.04431	78.53458	-628.91370	1234.00195	32.63388				-421.68600	1140.53589	80.11887	-528.35455	1320.35107	247.47482	-614.28961	963.43292	-49.42951	-232.54207	994.61560	347.08649	-434.25388	877.28583	-195.64278	-127.59236	749.75562	267.99081	-594.14001	853.49512	63.97537	-349.20212	820.97388	192.52292	-608.89294	937.64215	363.98047	-700.05164	442.13983	72.37037	-341.38943	433.50919	185.33600	-907.15479	172.55338	259.85394	-324.45828	99.76126	187.67696	
652	6.510	-329.99384	1262.41614	-40.24249	-446.45374	1501.80017	114.12896	-497.22913	1389.09595	-6.94401	-284.93753	1347.88123	75.59301	-623.70471	1234.29846	30.58999	-284.07986	1233.81714	259.46078	-416.41824	1139.75195	78.81717	-520.75922	1321.07361	246.39146	-610.35535	964.10199	-51.15233	-225.96379	994.27271	344.30896	-429.41052	879.13501	-198.05293	-118.94437	751.11841	259.35941	-589.95935	854.36853	62.39237	-345.78363	820.21704	190.94998	-604.76965	938.67944	362.61713	-696.07550	443.74698	69.46312	-339.23767	433.94901	184.44504	-900.42664	171.12146	254.97818	-324.50540	98.92683	187.13522	
653	6.520	-324.97922	1261.79321	-43.24656	-440.35938	1501.68457	110.98934	-491.34811	1387.98779	-9.81016	-276.96542	1348.55310	71.95239	-618.44592	1235.42871	28.21226	-276.06851	1235.91650	251.83904	-412.14322	1139.69897	75.69176	-515.16833	1321.52039	244.11359	-606.34760	965.06213	-53.54094	-218.61290	994.26068	340.73361	-424.68439	881.35864	-200.31776	-111.00133	751.91449	251.46405	-586.36517	854.76709	61.24168	-342.91501	819.26703	188.19627	-600.66229	939.47491	360.25183	-692.23627	444.53961	66.46491	-337.17014	433.85590	182.50949	-893.99072	169.42093	252.88382	-324.48862	98.23664	187.59660	
654	6.530	-320.29700	1261.64807	-45.06729	-434.81467	1501.83948	107.92337	-486.13049	1388.00024	-12.47317	-274.09576	1346.97314	68.92505	-613.55273	1236.00317	25.53347				-407.52759	1139.42773	73.34341	-509.62323	1321.88684	241.83226	-602.11188	966.48187	-56.15117	-211.49706	994.50873	337.47632	-420.29642	883.39484	-203.28815	-103.95098	752.52020	243.41492	-582.45435	855.52051	59.36001	-338.68539	819.32446	184.97267	-597.54834	940.28632	358.09702	-687.48700	444.38580	65.10674	-335.12363	433.29568	181.10457	-886.78735	166.10214	251.64024	-324.58667	97.86896	186.84288	
655	6.540	-315.07443	1260.33655	-48.14293	-428.90051	1501.44739	104.80616	-481.00375	1387.86987	-14.53444	-266.64789	1347.17871	66.67047	-608.61139	1236.50977	23.89170	-267.51331	1234.15063	248.83737	-402.63281	1138.97925	71.84570	-504.10858	1322.54956	239.32707	-597.92865	967.37494	-58.38018	-205.40771	994.04767	333.72769	-416.74710	885.58002	-209.90230	-96.94855	753.31769	236.14539	-579.10645	855.56744	58.07043	-334.40814	818.66162	183.72467	-594.51721	941.22705	356.01950	-683.84271	445.30252	63.50262	-333.42264	432.98438	179.30113	-878.73987	162.51813	244.75446	-324.84329	97.78732	186.03874	
656	6.550	-310.75903	1259.12500	-50.80258	-423.71518	1501.00000	101.97392	-475.60287	1386.74768	-17.16476	-263.98102	1345.62109	63.92525	-603.61267	1237.41919	22.32932	-263.99393	1232.47485	244.46687	-398.02182	1138.56946	70.36496	-498.73969	1323.13562	237.46529	-593.73450	968.07648	-61.17265	-199.55614	993.97729	329.48199	-412.64859	887.00140	-212.76839	-91.01720	754.22980	229.39476	-575.83209	856.14917	56.19131	-330.75604	818.30334	182.67340	-591.38007	942.01862	354.18265	-680.24921	446.19083	62.20673	-332.17499	432.68805	178.59373	-871.62042	160.46613	239.27513	-324.96844	97.53265	185.20827	
657	6.560	-305.79037	1258.33325	-52.80695	-418.26236	1501.00146	99.18649	-471.15018	1386.58411	-19.88669	-259.25244	1344.62231	61.10105	-598.87433	1238.45728	19.51398	-257.92651	1232.46765	242.52007	-393.93439	1138.50793	67.85959	-493.58594	1323.08203	234.79982	-589.51910	968.54956	-63.51054	-194.02586	993.71655	325.79449	-408.69525	888.19910	-215.71167	-85.09853	755.27509	222.25699	-572.73853	857.24921	53.15684	-327.15573	817.27118	180.51512	-587.73163	943.01483	351.71970	-676.80426	447.70114	61.34169	-330.84308	432.54169	177.18251	-863.46454	155.24890	236.44839	-325.20758	97.51217	184.41409	
658	6.570	-302.16867	1257.27722	-55.88412	-413.10498	1500.64771	96.06293	-466.54367	1385.85596	-22.25760	-252.05577	1344.54956	57.94962	-593.99622	1239.09021	17.14987				-390.08350	1138.10510	66.40490	-488.61966	1323.43994	232.56917				-189.41008	992.58130	322.09482	-404.90314	889.08551	-221.03906	-80.99065	756.22247	214.92606	-569.56024	857.81110	50.40723	-324.55090	816.59064	180.16795	-584.39844	943.69360	349.40500	-672.60010	447.48267	61.26469	-329.33829	431.54169	175.29062	-856.21643	152.39928	232.15047	-325.10223	97.01157	184.18901	
